<svg width="960" height="640" viewBox="0 0 960 640" fill="none" xmlns="http://www.w3.org/2000/svg">
  <defs>
    <linearGradient id="shell-bg" x1="0" y1="0" x2="960" y2="640" gradientUnits="userSpaceOnUse">
      <stop stop-color="#0F0C14"/>
      <stop offset="1" stop-color="#16121E"/>
    </linearGradient>
    <linearGradient id="hero-grad" x1="0" y1="0" x2="960" y2="180" gradientUnits="userSpaceOnUse">
      <stop stop-color="#1E3A6E"/>
      <stop offset="1" stop-color="#1B4F72"/>
    </linearGradient>
    <linearGradient id="metal-line" x1="0" y1="0" x2="280" y2="0" gradientUnits="userSpaceOnUse">
      <stop stop-color="#F9F1DB"/>
      <stop offset="0.5" stop-color="#C7AB70"/>
      <stop offset="1" stop-color="#5EA5A0"/>
    </linearGradient>
    <linearGradient id="stat-blue" x1="0" y1="0" x2="0" y2="60" gradientUnits="userSpaceOnUse">
      <stop stop-color="#3B82F6" stop-opacity="0.25"/>
      <stop offset="1" stop-color="#3B82F6" stop-opacity="0.06"/>
    </linearGradient>
    <linearGradient id="stat-green" x1="0" y1="0" x2="0" y2="60" gradientUnits="userSpaceOnUse">
      <stop stop-color="#22C55E" stop-opacity="0.25"/>
      <stop offset="1" stop-color="#22C55E" stop-opacity="0.06"/>
    </linearGradient>
    <linearGradient id="stat-purple" x1="0" y1="0" x2="0" y2="60" gradientUnits="userSpaceOnUse">
      <stop stop-color="#A855F7" stop-opacity="0.25"/>
      <stop offset="1" stop-color="#A855F7" stop-opacity="0.06"/>
    </linearGradient>
    <linearGradient id="stat-red" x1="0" y1="0" x2="0" y2="60" gradientUnits="userSpaceOnUse">
      <stop stop-color="#EF4444" stop-opacity="0.25"/>
      <stop offset="1" stop-color="#EF4444" stop-opacity="0.06"/>
    </linearGradient>
    <!-- grid pattern -->
    <pattern id="grid" width="32" height="32" patternUnits="userSpaceOnUse">
      <path d="M 32 0 L 0 0 0 32" fill="none" stroke="white" stroke-width="0.3" stroke-opacity="0.07"/>
    </pattern>
  </defs>

  <!-- outer shell -->
  <rect width="960" height="640" rx="20" fill="url(#shell-bg)"/>

  <!-- navbar -->
  <rect width="960" height="48" rx="0" fill="#120F18"/>
  <rect width="960" height="1" y="48" fill="#2A2237"/>
  <!-- nav logo box -->
  <rect x="16" y="8" width="32" height="32" rx="7" fill="white" fill-opacity="0.9"/>
  <rect x="20" y="12" width="24" height="24" rx="4" fill="#1B4F72"/>
  <text x="32" y="28" text-anchor="middle" font-family="system-ui,sans-serif" font-size="11" font-weight="700" fill="white" letter-spacing="0.5">H</text>
  <!-- nav brand -->
  <text x="58" y="29" font-family="system-ui,sans-serif" font-size="13" font-weight="700" fill="#F9F1DB" letter-spacing="0.3">NyxHICSlab</text>
  <!-- nav links -->
  <text x="200" y="29" font-family="system-ui,sans-serif" font-size="11" fill="#C9BC9F" fill-opacity="0.7">Dashboard</text>
  <text x="288" y="29" font-family="system-ui,sans-serif" font-size="11" fill="#C9BC9F" fill-opacity="0.5">Roles</text>
  <text x="340" y="29" font-family="system-ui,sans-serif" font-size="11" fill="#C9BC9F" fill-opacity="0.5">Scenarios</text>
  <text x="416" y="29" font-family="system-ui,sans-serif" font-size="11" fill="#C9BC9F" fill-opacity="0.5">Quiz</text>
  <!-- nav session badge -->
  <rect x="760" y="11" width="180" height="26" rx="6" fill="#1D182A" stroke="#3A2E4A" stroke-width="1"/>
  <circle cx="776" cy="24" r="4" fill="#5EA5A0"/>
  <text x="786" y="28" font-family="system-ui,sans-serif" font-size="9" fill="#C9BC9F" fill-opacity="0.8">North Campus · 28m session</text>

  <!-- dashboard hero banner -->
  <rect x="0" y="48" width="960" height="152" fill="url(#hero-grad)"/>
  <rect x="0" y="48" width="960" height="152" fill="url(#grid)"/>
  <ellipse cx="820" cy="80" rx="120" ry="80" fill="#3B82F6" fill-opacity="0.12"/>
  <ellipse cx="160" cy="160" rx="90" ry="60" fill="#1E3A6E" fill-opacity="0.4"/>

  <!-- logo in hero -->
  <rect x="32" y="68" width="52" height="52" rx="12" fill="white" fill-opacity="0.92" stroke="white" stroke-opacity="0.45"/>
  <rect x="36" y="72" width="44" height="44" rx="8" fill="#1B4F72"/>
  <text x="58" y="100" text-anchor="middle" font-family="system-ui,sans-serif" font-size="24" font-weight="800" fill="white">H</text>

  <!-- hero text -->
  <text x="100" y="90" font-family="system-ui,sans-serif" font-size="18" font-weight="700" fill="white">NyxHICSlab</text>
  <text x="100" y="110" font-family="system-ui,sans-serif" font-size="11" fill="white" fill-opacity="0.7">Behavioral Health HICS Training Platform</text>
  <rect x="100" y="122" width="280" height="4" rx="2" fill="url(#metal-line)"/>
  <text x="100" y="146" font-family="system-ui,sans-serif" font-size="10" fill="white" fill-opacity="0.6">Active: North Campus Behavioral Health  ·  Facilitator Mode  ·  Live Drill</text>
  <!-- CTA button -->
  <rect x="100" y="158" width="130" height="28" rx="7" fill="#C7AB70" fill-opacity="0.9"/>
  <text x="165" y="176" text-anchor="middle" font-family="system-ui,sans-serif" font-size="11" font-weight="600" fill="#120F18">Start Training Session</text>
  <rect x="244" y="158" width="100" height="28" rx="7" fill="white" fill-opacity="0.12" stroke="white" stroke-opacity="0.3" stroke-width="1"/>
  <text x="294" y="176" text-anchor="middle" font-family="system-ui,sans-serif" font-size="11" fill="white" fill-opacity="0.9">View Reports</text>

  <!-- Stat cards row -->
  <!-- Blue: HICS Roles -->
  <rect x="32" y="216" width="210" height="66" rx="12" fill="#1D182A" stroke="#2E2840" stroke-width="1"/>
  <rect x="32" y="216" width="210" height="66" rx="12" fill="url(#stat-blue)"/>
  <circle cx="56" cy="236" r="10" fill="#3B82F6" fill-opacity="0.3"/>
  <rect x="48" y="229" width="16" height="16" rx="4" fill="#3B82F6" fill-opacity="0.5"/>
  <text x="76" y="239" font-family="system-ui,sans-serif" font-size="10" fill="white" fill-opacity="0.55">HICS Roles</text>
  <text x="76" y="260" font-family="system-ui,sans-serif" font-size="22" font-weight="700" fill="white">36</text>
  <text x="108" y="260" font-family="system-ui,sans-serif" font-size="10" fill="#3B82F6" fill-opacity="0.8">defined</text>

  <!-- Green: Training Scenarios -->
  <rect x="254" y="216" width="210" height="66" rx="12" fill="#1D182A" stroke="#2E2840" stroke-width="1"/>
  <rect x="254" y="216" width="210" height="66" rx="12" fill="url(#stat-green)"/>
  <rect x="270" y="229" width="16" height="16" rx="4" fill="#22C55E" fill-opacity="0.5"/>
  <text x="298" y="239" font-family="system-ui,sans-serif" font-size="10" fill="white" fill-opacity="0.55">Training Scenarios</text>
  <text x="298" y="260" font-family="system-ui,sans-serif" font-size="22" font-weight="700" fill="white">12</text>
  <text x="330" y="260" font-family="system-ui,sans-serif" font-size="10" fill="#22C55E" fill-opacity="0.8">available</text>

  <!-- Purple: Quiz Questions -->
  <rect x="476" y="216" width="210" height="66" rx="12" fill="#1D182A" stroke="#2E2840" stroke-width="1"/>
  <rect x="476" y="216" width="210" height="66" rx="12" fill="url(#stat-purple)"/>
  <rect x="492" y="229" width="16" height="16" rx="4" fill="#A855F7" fill-opacity="0.5"/>
  <text x="520" y="239" font-family="system-ui,sans-serif" font-size="10" fill="white" fill-opacity="0.55">Quiz Questions</text>
  <text x="520" y="260" font-family="system-ui,sans-serif" font-size="22" font-weight="700" fill="white">48</text>
  <text x="552" y="260" font-family="system-ui,sans-serif" font-size="10" fill="#A855F7" fill-opacity="0.8">questions</text>

  <!-- Red: HICS Sections -->
  <rect x="698" y="216" width="230" height="66" rx="12" fill="#1D182A" stroke="#2E2840" stroke-width="1"/>
  <rect x="698" y="216" width="230" height="66" rx="12" fill="url(#stat-red)"/>
  <rect x="714" y="229" width="16" height="16" rx="4" fill="#EF4444" fill-opacity="0.5"/>
  <text x="742" y="239" font-family="system-ui,sans-serif" font-size="10" fill="white" fill-opacity="0.55">HICS Sections</text>
  <text x="742" y="260" font-family="system-ui,sans-serif" font-size="22" font-weight="700" fill="white">5</text>
  <text x="766" y="260" font-family="system-ui,sans-serif" font-size="10" fill="#EF4444" fill-opacity="0.8">sections</text>

  <!-- Quick link cards grid (2x3) -->
  <!-- Row 1 -->
  <rect x="32" y="298" width="290" height="148" rx="12" fill="#1D182A" stroke="#2E2840" stroke-width="1"/>
  <rect x="32" y="298" width="4" height="148" rx="2" fill="#3B82F6"/>
  <text x="52" y="320" font-family="system-ui,sans-serif" font-size="11" font-weight="700" fill="white">Explore HICS Roles</text>
  <rect x="244" y="307" width="66" height="18" rx="5" fill="#3B82F6" fill-opacity="0.2"/>
  <text x="277" y="319" text-anchor="middle" font-family="system-ui,sans-serif" font-size="9" fill="#3B82F6">Interactive Chart</text>
  <text x="52" y="336" font-family="system-ui,sans-serif" font-size="9.5" fill="white" fill-opacity="0.5">Learn about each position in the HICS</text>
  <text x="52" y="350" font-family="system-ui,sans-serif" font-size="9.5" fill="white" fill-opacity="0.5">organizational structure, including</text>
  <text x="52" y="364" font-family="system-ui,sans-serif" font-size="9.5" fill="white" fill-opacity="0.5">responsibilities and reporting chains.</text>
  <rect x="52" y="418" width="100" height="22" rx="6" fill="#1B4F72" fill-opacity="0.6"/>
  <text x="102" y="433" text-anchor="middle" font-family="system-ui,sans-serif" font-size="10" fill="#93C5FD">Open Roles Chart</text>

  <rect x="334" y="298" width="290" height="148" rx="12" fill="#1D182A" stroke="#2E2840" stroke-width="1"/>
  <rect x="334" y="298" width="4" height="148" rx="2" fill="#22C55E"/>
  <text x="354" y="320" font-family="system-ui,sans-serif" font-size="11" font-weight="700" fill="white">Training Scenarios</text>
  <rect x="556" y="307" width="56" height="18" rx="5" fill="#22C55E" fill-opacity="0.2"/>
  <text x="584" y="319" text-anchor="middle" font-family="system-ui,sans-serif" font-size="9" fill="#22C55E">12 Scenarios</text>
  <text x="354" y="336" font-family="system-ui,sans-serif" font-size="9.5" fill="white" fill-opacity="0.5">Practice responding to real-world hospital</text>
  <text x="354" y="350" font-family="system-ui,sans-serif" font-size="9.5" fill="white" fill-opacity="0.5">emergencies including mass casualty,</text>
  <text x="354" y="364" font-family="system-ui,sans-serif" font-size="9.5" fill="white" fill-opacity="0.5">fires, and hazmat events.</text>
  <rect x="354" y="418" width="100" height="22" rx="6" fill="#14532D" fill-opacity="0.6"/>
  <text x="404" y="433" text-anchor="middle" font-family="system-ui,sans-serif" font-size="10" fill="#86EFAC">Browse Scenarios</text>

  <rect x="636" y="298" width="292" height="148" rx="12" fill="#1D182A" stroke="#2E2840" stroke-width="1"/>
  <rect x="636" y="298" width="4" height="148" rx="2" fill="#A855F7"/>
  <text x="656" y="320" font-family="system-ui,sans-serif" font-size="11" font-weight="700" fill="white">Knowledge Quiz</text>
  <rect x="832" y="307" width="82" height="18" rx="5" fill="#A855F7" fill-opacity="0.2"/>
  <text x="873" y="319" text-anchor="middle" font-family="system-ui,sans-serif" font-size="9" fill="#A855F7">48 Questions</text>
  <text x="656" y="336" font-family="system-ui,sans-serif" font-size="9.5" fill="white" fill-opacity="0.5">Test your HICS knowledge with</text>
  <text x="656" y="350" font-family="system-ui,sans-serif" font-size="9.5" fill="white" fill-opacity="0.5">scenario-based questions covering</text>
  <text x="656" y="364" font-family="system-ui,sans-serif" font-size="9.5" fill="white" fill-opacity="0.5">triage, protocols, and emergency mgmt.</text>
  <rect x="656" y="418" width="100" height="22" rx="6" fill="#3B0764" fill-opacity="0.6"/>
  <text x="706" y="433" text-anchor="middle" font-family="system-ui,sans-serif" font-size="10" fill="#C084FC">Start Quiz</text>

  <!-- Row 2 -->
  <rect x="32" y="458" width="290" height="148" rx="12" fill="#1D182A" stroke="#2E2840" stroke-width="1"/>
  <rect x="32" y="458" width="4" height="148" rx="2" fill="#F97316"/>
  <text x="52" y="480" font-family="system-ui,sans-serif" font-size="11" font-weight="700" fill="white">AI Training Assistant</text>
  <rect x="235" y="467" width="78" height="18" rx="5" fill="#F97316" fill-opacity="0.2"/>
  <text x="274" y="479" text-anchor="middle" font-family="system-ui,sans-serif" font-size="9" fill="#F97316">24/7 Available</text>
  <text x="52" y="496" font-family="system-ui,sans-serif" font-size="9.5" fill="white" fill-opacity="0.5">Ask questions and get instant answers</text>
  <text x="52" y="510" font-family="system-ui,sans-serif" font-size="9.5" fill="white" fill-opacity="0.5">about HICS protocols, procedures,</text>
  <text x="52" y="524" font-family="system-ui,sans-serif" font-size="9.5" fill="white" fill-opacity="0.5">and best practices from our AI assistant.</text>
  <rect x="52" y="578" width="100" height="22" rx="6" fill="#431407" fill-opacity="0.6"/>
  <text x="102" y="593" text-anchor="middle" font-family="system-ui,sans-serif" font-size="10" fill="#FDBA74">Ask the Assistant</text>

  <rect x="334" y="458" width="290" height="148" rx="12" fill="#1D182A" stroke="#2E2840" stroke-width="1"/>
  <rect x="334" y="458" width="4" height="148" rx="2" fill="#F59E0B"/>
  <text x="354" y="480" font-family="system-ui,sans-serif" font-size="11" font-weight="700" fill="white">Facilitator Quick Start</text>
  <rect x="556" y="467" width="68" height="18" rx="5" fill="#F59E0B" fill-opacity="0.2"/>
  <text x="590" y="479" text-anchor="middle" font-family="system-ui,sans-serif" font-size="9" fill="#F59E0B">Session Guide</text>
  <text x="354" y="496" font-family="system-ui,sans-serif" font-size="9.5" fill="white" fill-opacity="0.5">Launch guided setup, debrief prompts,</text>
  <text x="354" y="510" font-family="system-ui,sans-serif" font-size="9.5" fill="white" fill-opacity="0.5">and a practical 30-minute training flow</text>
  <text x="354" y="524" font-family="system-ui,sans-serif" font-size="9.5" fill="white" fill-opacity="0.5">for team leads and facilitators.</text>
  <rect x="354" y="578" width="100" height="22" rx="6" fill="#422006" fill-opacity="0.7"/>
  <text x="404" y="593" text-anchor="middle" font-family="system-ui,sans-serif" font-size="10" fill="#FCD34D">Open Quick Start</text>

  <rect x="636" y="458" width="292" height="148" rx="12" fill="#1D182A" stroke="#2E2840" stroke-width="1"/>
  <rect x="636" y="458" width="4" height="148" rx="2" fill="#64748B"/>
  <text x="656" y="480" font-family="system-ui,sans-serif" font-size="11" font-weight="700" fill="white">Training Reports</text>
  <rect x="840" y="467" width="74" height="18" rx="5" fill="#64748B" fill-opacity="0.3"/>
  <text x="877" y="479" text-anchor="middle" font-family="system-ui,sans-serif" font-size="9" fill="#CBD5E1">CSV Export</text>
  <text x="656" y="496" font-family="system-ui,sans-serif" font-size="9.5" fill="white" fill-opacity="0.5">Review completion trends, score</text>
  <text x="656" y="510" font-family="system-ui,sans-serif" font-size="9.5" fill="white" fill-opacity="0.5">performance, and export facilitator-</text>
  <text x="656" y="524" font-family="system-ui,sans-serif" font-size="9.5" fill="white" fill-opacity="0.5">friendly training records.</text>
  <rect x="656" y="578" width="100" height="22" rx="6" fill="#1E293B" fill-opacity="0.8"/>
  <text x="706" y="593" text-anchor="middle" font-family="system-ui,sans-serif" font-size="10" fill="#94A3B8">View Reports</text>
</svg>
