<svg width="640" height="400" viewBox="0 0 640 400" fill="none" xmlns="http://www.w3.org/2000/svg">
  <defs>
    <linearGradient id="bg2" x1="0" y1="0" x2="640" y2="400" gradientUnits="userSpaceOnUse">
      <stop stop-color="#15101A"/>
      <stop offset="1" stop-color="#2C2238"/>
    </linearGradient>
  </defs>
  <rect width="640" height="400" rx="20" fill="url(#bg2)"/>
  <rect x="30" y="30" width="580" height="340" rx="14" stroke="#B89B69" stroke-opacity="0.5"/>
  <rect x="70" y="74" width="500" height="48" rx="10" fill="#231B2C"/>
  <rect x="92" y="90" width="180" height="12" rx="6" fill="#EFE2C2"/>
  <rect x="286" y="90" width="94" height="12" rx="6" fill="#7B688D"/>
  <rect x="394" y="90" width="154" height="12" rx="6" fill="#5EA5A0"/>

  <rect x="70" y="148" width="500" height="62" rx="10" fill="#231B2C"/>
  <rect x="92" y="166" width="210" height="10" rx="5" fill="#D6C39A"/>
  <rect x="92" y="184" width="120" height="8" rx="4" fill="#B9A5CB"/>
  <rect x="470" y="164" width="78" height="30" rx="8" fill="#374D4D"/>

  <rect x="70" y="228" width="500" height="104" rx="10" fill="#231B2C"/>
  <rect x="92" y="248" width="160" height="10" rx="5" fill="#D6C39A"/>
  <rect x="92" y="268" width="420" height="8" rx="4" fill="#AAB5BA" fill-opacity="0.7"/>
  <rect x="92" y="286" width="360" height="8" rx="4" fill="#AAB5BA" fill-opacity="0.5"/>
  <rect x="470" y="252" width="78" height="26" rx="8" fill="#513A62"/>
</svg>
